<svg xmlns="http://www.w3.org/2000/svg" viewBox="0 0 500 500"><style>.st1{fill:#424c8a}.st2{fill:#ffb036}.st3{fill:#ffa874}.st4{fill:#ffbe94}.st5{fill:#1c0825}.st6{fill:#ff8861}.st7{fill-rule:evenodd;clip-rule:evenodd;fill:#ff514d}.st8{fill:#ffbd95}.st12,.st9{fill-rule:evenodd;clip-rule:evenodd;fill:#ffb136}.st12{fill:#ffbe94}.st14{fill:#ff704a}.st17,.st22,.st23,.st24{fill-rule:evenodd;clip-rule:evenodd;fill:#ffc107}.st22,.st23,.st24{fill:#322233}.st23,.st24{fill:#4caf50}.st24{fill:#2196f3}.st25{fill:#ffa37f}.st26{fill:#fcbb8b}.st28{fill:#ff9b7a}.st29{fill:#7a5ca1}.st30{fill:#e4d2e5}</style><path d="M462.01 201.36h-96.53c7.01-6.87 11.57-17.83 11.57-30.12v-1.47c0-20.68-12.92-37.6-28.71-37.6H40.89c-15.79 0-28.71 16.92-28.71 37.6V171.61c.12 16.54 12 29.75 26.3 29.75h116.85c6.41 0 12.35 2.79 17.14 7.49 7.01 6.87 11.57 17.83 11.57 30.12 0 14.49-6.34 27.12-15.57 33.39H70.86c-5.74 0-11.22 1.5-16.24 4.21-15.65 8.44-26.75 28.65-26.75 52.11v2.2c0 30.97 19.35 56.32 42.99 56.32h312.79c23.65 0 42.99-25.34 42.99-56.32v-2.2c0-22.18-9.92-41.47-24.24-50.64H462c15.79 0 28.71-16.92 28.71-37.6v-1.47c0-20.69-12.91-37.61-28.7-37.61z" fill="#6ace6a" id="BACKGROUND"/><g id="OBJECTS"><g id="BACKGROUND_1_"><path class="st1" d="M-18.42-104.8s-.73 43.76-1.4 56.67c-1.05 20.22-8.47 80.55-8.47 80.55l-9.58-.15s.77-53.85-.53-71.8c-.99-13.78-2.4-60.99-2.4-60.99l22.38-4.28z" transform="translate(140.785 371.277)"/><path class="st1" d="M-21.01-99.37s-10.63 49.64-14.73 64.46c-4.76 17.19-19.05 68.76-19.05 68.76h-8.04l16.67-134.92 25.15 1.7z" transform="translate(127.211 369.847)"/><path class="st2" d="M-22.87-72.93l21.66 6.8L6.1 14.13l-44.81-.48-7.61-84.47 13.04-5.3 10.41 3.19z" transform="translate(117.411 258.48)"/><path class="st3" d="M-21.73-1.45l-2.25 6.19c-1.78 4.9-6.27 7.35-10.27 5.6-3.84-1.68-6-6.71-5.02-11.7L-38-7.85c1.09-5.55 5.61-9.02 10.02-7.68l.97.3c4.85 1.46 7.36 8.03 5.28 13.78" transform="translate(123.394 183.711)"/><path class="st4" d="M-20.05-1.92c-2.04 13.14-3.43 23.84-14.34 22.13-10.91-1.7-27.19-15.16-25.15-28.3C-57.5-21.23-47.01-30.5-36.11-28.8c10.9 1.7 18.09 13.74 16.06 26.88" transform="translate(132.21 166.146)"/><path class="st5" d="M-24.93 35.33s-9.52-4.41-10.52-15.76S-30.1 5.08-30.1 5.08-33.35-5.3-19.74-8.24C-6.13-11.19.74-.78 10.73-4.38c9.99-3.6 14.72 15.92-5.15 17.74-19.88 1.82-20.09-5.18-23.97-2.25 0 0 .74 10.18-3.29 17.9-1.08 2.07-1.08 5.06-3.25 6.32" transform="translate(106.64 142.432)"/><path class="st4" d="M-24.36 4.06l-2.23-8.56s-4.36-2.32-5.65 1.47 3.74 7.67 7.88 7.09" transform="translate(109.633 168.38)"/><path class="st6" d="M-21.43-13.31c.61.91.56 2.16 1.29 3 .7.8 1.69 1.4 2.44 2.18 1.5 1.56-.05 4.47-2.17 3.4-1.6-.81-2.47-2.27-2.92-3.98-.36-1.35-1.02-3.13-.25-4.46.35-.61 1.19-.77 1.61-.14" transform="translate(124.982 178.643)"/><path d="M-27.48 27.85l.04-1.76-.33.04-1.77 2.95s-8.04 1.96-17.74 3.3l.33 1.06-.3.42.23.63 29.93-1.34-.16-.93c-.05-.27-1.51-4.85-1.51-4.85l-.25-.75-.22-.09.07.89-8.32.43z" transform="translate(93.239 372.966)"/><path d="M-20.16 27.85l-.04-1.76.33.04 1.77 2.95s8.04 1.96 17.74 3.3l-.33 1.06.3.42-.23.63-29.93-1.34.16-.93c.05-.27 1.51-4.85 1.51-4.85l.25-.75.22-.09-.07.89 8.32.43z" transform="translate(131.645 372.966)"/></g><path class="st7" d="M19.61 284.64c-5.2-2.45-34.31-6.08-38.74 24.35-.47 3.21-.84 13.43-.16 14.2 1.21 1.38 16.32 2.26 19.5 2.5.95.07-.21-7.75 1.35-14.62 1.54-6.76 5.35-10.08 12.63-8.48 6.19 1.36 7.68 7.58 6.14 16.51-1.72 9.97-18.34 17.73-26.07 18.79-1.03.67-2.39 23.33-1.14 23.85 3.02 1.26 9.81.62 13.03.46 3.42-.17 6.23.45 7.68-3.17.67-1.68-.27-11.01.27-11.48 1.21-1.06 3.72-1.66 5.32-2.7 6.85-4.43 13.96-8.84 18.01-16.61 3.47-6.66 3.61-18.29.63-26.83-2.3-6.53-9.76-12.67-18.45-16.77z" transform="rotate(-9.17 131.201 -328.57) scale(1.14913 1)"/><ellipse transform="matrix(-.06608 1.05374 -.99789 -.06515 280.999 288.428)" class="st7" cx="107.12" cy="157.26" rx="12.16" ry="11.75"/><path class="st8" d="M88.28 296.45s4.85 1.92 8.24 1.55c3.39-.37-1.1 3.16-4.78 2.35 0 0 5.43 6.31 7.46 8.52 2.25 2.46-.15 1.98-5.4-3.21 0 0 2.56 4.05 3.92 5.8 1.35 1.75-2.8-.13-5.89-5.29 0 0 .79 2.27 3.4 6.4 2.61 4.14-3.62-.44-5.63-6.66 0 0 1.9 5.02 3.03 7.91 1.06 2.71-2.28-.24-4.89-5.47 0 0-4.18-8.74-5.48-12.14-1.78-4.72 1.91-2.69 6.02.24z"/><path class="st8" d="M78 219.71c-2.55 13.79-6.76 18.25-6.11 31.64.89 18.08 11.32 31.3 19.49 51.23-4.21-.73-7.53-3.88-10.33-7.16-8.23-9.66-20.71-21.99-23.83-37.74-2.28-11.49 1.77-26.86 2.63-41.02.23-3.76-.59-20.87 12.46-18.46 6.1 1.11 6.56 16.79 5.69 21.51z"/><path class="st9" d="M74.23 186.77c4.6.34 8.43 4.52 9.29 8.09.91 3.77-.1 7.81-.42 11.56-.36 4.15-.22 8.31-.63 12.44-.29 2.93-1.84 12.38-1.84 12.38-2.31 1.92-11.29 1.93-14.52 1.93-3.27 0-12.46-2.49-12.98-2.92 0 0 1.64-6.3 1.9-7.36 1.92-7.96 3.3-16.7 7.81-24.18 1.69-2.81 3.34-7.97 6.08-10.25.97-.81 5.31-1.69 5.31-1.69z"/><g><path class="st8" d="M124.01 291.29s-3.96 3.47-7.3 4.28 2.12 2.59 5.33.58c0 0-3.02 7.79-4.2 10.57-1.31 3.08.81 1.81 4.04-4.87 0 0-1.06 4.68-1.75 6.8s2.62-1.08 3.8-6.99c0 0 .02 2.4-1.06 7.18-1.08 4.78 3.29-1.66 3.09-8.19 0 0-.1 5.37-.2 8.48-.09 2.91 2.08-1.01 2.79-6.82 0 0 1.01-9.65 1.09-13.3.1-5.06-2.72-1.89-5.63 2.28z"/><path class="st8" d="M124.29 243.24c5.28 17.31-.14 33.32-1.15 54.87 3.75-2.12 5.84-6.23 7.38-10.27 4.54-11.91 7.71-27.11 5.34-43-1.73-11.59-6.28-25.32-11.89-38.35-.73-1.7-8.06 3.45-8.3 11.22-.26 8.1 6.62 18.99 8.62 25.53z"/></g><path class="st9" d="M111.96 192.75c-1.99 0-1.52 8.04-1.44 9.31.52 8.27 1.53 17.2 3.53 25.19.43 1.73.64 3.87.64 5.62 0 .27 0 2.08.16 2.25.32.32 4.31-1.62 4.81-1.93 2.9-1.74 6.77-3.11 9.95-4.17 1.1-.37 4.6-2.77 4.17-1.77-.7 1.66-7.79-22.37-11.72-27.6-3.24-4.31-4.25-8.02-10.27-8.02"/><g><path d="M-7.29-86.29S-8.86-45.31-9.2-29.24c-.36 16.87-.7 74.43-.7 74.43l5.28-1.25S22.32-8.54 1.94-19.32l17.55-41.7c0-.02-.07-40.36-26.78-25.27" fill="#ff8f00" transform="translate(199.191 359.061)"/><path class="st2" d="M-7.29-97.89a26.607 26.607 0 009.6 26.12l3.83 3.02L18.48 33.62h2.91s21.79-58.67-1.14-66.95c0 0 26.37-48.2 1.14-65.88l-28.68 1.32z" transform="translate(199.191 370.656)"/><path d="M186.97 163.11s.83-.86-2.81 1.56c-13.32 8.88-10.12 26.02-6.87 39.02.76 3.06 3.04 6.23 3.43 9.36.38 3.08.02 6.32.62 9.36 1.97 9.86-16 24.61-1.87 33.09 2.12 1.27 5.76 3.56 8.43 2.5 2.18-.87 5.61-3.28 7.49-4.68.55-.42 2.62-3.53 2.81-3.43.43.22 1.1 3.68 1.56 4.37 2.92 4.38 11.7 6.83 16.54 5.62 3.24-.81 6.16-4.13 7.18-7.18.4-1.2 1.03-2.11 1.25-3.43.1-.62-.14-2.32.31-1.87 9.45 9.45 21.82-3.7 27.47-13.11 7.69-12.82 1.59-31.7-6.24-42.14-1.38-1.83-1.88-4.53-3.75-5.93-2.97-2.23-4.32-6.05-7.18-8.43-13.53-11.29-29.06-28.36-48.37-14.68z" fill-rule="evenodd" clip-rule="evenodd" fill="#773b3b"/><path class="st12" d="M191.58 237.26c-1.58.43-3.06-1.5-4.38-2.56-2.87-2.3-4.56-4.71-6.95-7.49-7.13-8.32-14.34-27.82-17.34-38.3-5.51-19.29 2.4-29.19 18.07-57.55 1.72-3.12 14.97-17.04 19.5-14.78 3.54 1.77-5.81 11.69-8.18 14.05-2.33 2.33-4.1 8.25-5.48 11.69-5.14 12.85-9.49 22.36-9.49 36.88 0 12.83 14.82 31.46 20.45 42.72 1.72 3.43-6.2 15.34-6.2 15.34z"/><path d="M-5.27-53.38c-2.94 1.51-12.31 7.35-14.06 18.68-1.04 6.73-.28 26.13 1.34 41.59.94 8.91 14.47 8.22 22.15 3.76l6.6-5.47s11.36-37.15 7.54-47.04C14.49-51.75 1.37-56.78-5.27-53.38" fill="#ff514d" transform="translate(209.809 266.255)"/><path class="st3" d="M-5.57 21.01h-.06V-.51H5.74v10.2c0 6.25-5.06 11.32-11.31 11.32" transform="translate(208.231 198.473)"/><path class="st4" d="M-2.37-3.46C2.1 14.49-3.3 19.19-12.64 19.59c-11.07.47-23.62-7.38-27.9-18.18-4.28-10.79 3.73-20 12.19-23.62S-7.43-23.74-2.37-3.46" transform="translate(225.003 189.032)"/><path class="st14" d="M-3.51-5.67c.02 1.62.65 3.27 1.79 4.41C-.51-.05 1.78.8 3.17-.21c1.2-.87 1.21-2.78-.12-3.67-.73-.49-1.58-.5-2.34-.94-.7-.4-1.18-.8-1.55-1.59-.69-1.45-2.7-.73-2.67.74" transform="translate(219.009 193.908)"/><path class="st5" d="M-7.5 17.17s-.04 11.37-13.43 17.86c0 0 12.34.1 16.83-11l-.19 8.29 1.49-.33.7-15.33-5.4.51z" transform="translate(198.112 382.878)"/><path class="st5" d="M-3.29 16.95s-1.02 11.32-14.06 16.54c0 0 11.49 1.24 16.64-9.39l.67 8.98 1.41-.19.42-15.95h-5.08z" transform="translate(220.196 383.461)"/><path d="M-2.53-9.32s-4.19 3.16-10.18 2.35c-.01-.01 9.17 7.69 10.18-2.35" fill="#fff" transform="translate(224.158 204.939)"/><path class="st14" d="M-4.72-.89c0 2.95-2.39 5.33-5.33 5.33-2.95 0-5.34-2.39-5.34-5.33s2.39-5.33 5.34-5.33c2.94 0 5.33 2.39 5.33 5.33" transform="translate(212.661 196.501)"/><path d="M-5.05-43.13s-20.98 6.19-23.82 17.77C-31.71-13.78-23.55.4-19.56.27c3.99-.12 36.14-29.69 14.51-43.4" fill="#773b3b" transform="translate(210.94 203.267)"/><path class="st17" d="M127.59 31.87c-5.33-2.06-34.59-3.48-37.27 27.21-.28 3.24-.07 13.47.65 14.18 1.29 1.29 16.42 1.03 19.6 1.03.95 0-.65-7.71.52-14.69 1.15-6.86 4.76-10.46 12.12-9.41 6.26.89 8.1 6.99 7.06 16.02-1.15 10.08-17.3 19.07-24.95 20.71-.99.75-1.06 23.46.22 23.88 3.08 1.03 9.82-.12 13.02-.52 3.41-.43 6.24-.02 7.48-3.74.58-1.72-.9-10.96-.39-11.48 1.15-1.15 3.62-1.94 5.16-3.1 6.58-4.94 13.43-9.87 17.02-17.92 3.08-6.91 2.56-18.52-.9-26.82-2.65-6.35-10.44-11.91-19.34-15.35z" transform="rotate(-9.17 131.201 -328.57) scale(1.14913 1)"/><ellipse transform="matrix(-.99776 .06934 -.07866 -1.05285 335.512 235.873)" class="st17" cx="121.53" cy="115.39" rx="12.25" ry="11.67"/><path class="st12" d="M209.11 126.25c.75 0 3.15 4.63 3.65 5.48 3.46 5.76 5.16 11.84 7.3 18.26 8.39 25.17 3.85 53.28-6.94 74.86-1.97 3.94 2.07 16.6 8.03 14.61 8.74-2.91 9.81-14.06 11.69-21.54 5.64-22.58 5.18-50.95-3.65-73.03-2.11-5.29-7.84-17.98-12.05-20.08-2.6-1.3-6.69-5.72-9.49-2.92M189.39 121.58c0-.77 1.5-1.12 1.93-1.76.88-1.31 1.65-2.8 2.57-4.17.31-.47 2.41-2.91 2.41-2.73 0 2.77-2.05 9.76-4.01 11.71"/><path class="st8" d="M213.4 131.68s-6.29-1.65-10.42-.68c-4.14.97.89-4.07 5.55-3.63 0 0-7.67-6.98-10.51-9.41-3.15-2.7-.11-2.47 7.16 3.16 0 0-3.78-4.62-5.71-6.58-1.93-1.96 3.48-.26 8.07 5.65 0 0-1.32-2.68-5.16-7.4-3.85-4.72 4.55 0 7.96 7.39 0 0-3.1-5.93-4.93-9.32-1.72-3.18 2.85-.04 6.87 6.03 0 0 6.48 10.17 8.59 14.19 2.93 5.56-1.94 3.61-7.47.6z"/></g><g><path d="M17.98-107.79s-.74 44.82-1.42 58.03c-1.07 20.71-8.63 82.49-8.63 82.49l-9.76-.16s.79-55.15-.54-73.53c-1.01-14.11-2.44-62.46-2.44-62.46l22.79-4.37z" fill="#78a1ae" transform="translate(331.79 372.905)"/><path d="M15.34-102.23S4.5-51.4.32-36.22C-4.53-18.62-19.1 34.19-19.1 34.19h-8.2l16.99-138.17 25.65 1.75z" fill="#4f8b98" transform="translate(317.953 371.441)"/><path d="M13.43-78.15l22.08 6.96L42.97 11l-44.2 3.56-4.27-85.93L5.94-76.9l7.49-1.25z" fill="#322234" transform="translate(307.961 260.386)"/><path class="st3" d="M12.45-3.91l1.61 6.54c1.27 5.18 5.55 8.15 9.78 6.79 4.06-1.31 6.77-6.19 6.31-11.39l-.59-6.74c-.51-5.77-4.71-9.78-9.3-8.88l-1.01.2c-5.05.98-8.29 7.4-6.8 13.48" transform="translate(302.817 181.26)"/><path class="st4" d="M11.07-5.56c.65 13.6.92 24.64 12.12 24.06 11.19-.59 29.07-12.57 28.42-26.17-.65-13.6-10.26-24.15-21.46-23.57-11.19.58-19.74 12.08-19.08 25.68" transform="translate(295.528 163.436)"/><path d="M15.76 37.26s10.09-3.49 12.31-14.94S24.21 7 24.21 7 28.6-3.22 15.17-7.67C1.74-12.11-6.3-2.24-16.02-6.96c-9.71-4.72-16.57 14.66 3.31 18.62 19.88 3.95 20.85-3.16 24.45.24 0 0-1.84 10.29 1.41 18.58.88 2.22.55 5.27 2.61 6.78" fill="#e65e46" transform="translate(320.142 137.619)"/><path class="st4" d="M15.27 2.72l3.16-8.49s4.65-1.9 5.55 2.1c.91 4-4.59 7.42-8.71 6.39" transform="translate(317.596 166.352)"/><path class="st6" d="M12.44-14.03c-.71.86-.8 2.14-1.63 2.91-.79.74-1.86 1.25-2.7 1.96-1.69 1.43-.43 4.56 1.83 3.7 1.7-.65 2.74-2.05 3.37-3.74.5-1.34 1.36-3.08.73-4.52-.29-.65-1.11-.9-1.6-.31" transform="translate(302.73 173.937)"/><path d="M8.74 28.05l.04-1.8-.34.04-1.81 3.02s-8.2 2.01-18.09 3.38l.34 1.09-.3.43.24.65 30.52-1.38-.17-.95c-.05-.28-1.54-4.97-1.54-4.97l-.26-.77-.22-.1.07.91-8.48.45z" transform="translate(283.318 374.636)"/><path d="M16.2 28.05l-.04-1.8.34.04 1.81 3.02s8.2 2.01 18.09 3.38l-.34 1.09.3.43-.24.65-30.51-1.38.17-.95c.05-.28 1.54-4.97 1.54-4.97l.26-.77.22-.1-.07.91 8.47.45z" transform="translate(322.473 374.636)"/><path class="st12" d="M299.34 191.67c-.72 0-1.84 2.41-2.41 3.21-2.81 3.93-5.06 8.72-7.22 13.03-2.43 4.86-7.42 11.3-7.42 16.64 0 .87 1.74 0 2.61 0 1.82 0 4.53-.36 6.21.2 1.19.4 8.36 2.46 9.02 1.8 1.18-1.18.97-6.78 1.2-8.42.83-5.84 2.07-12.16.6-18.04-.81-3.23.46-7.36-1.6-9.42M343.66 189.96c-1.42 0 1.61.77 1.87 1.56.67 2.02 3.64 4.21 4.99 6.24 4.01 6.02 6.15 13.7 6.87 20.91 2.42 24.17 3.67 58.85.61 83.36-.85 6.82 0 0-4.67 4.67-.91.91-2.68-10.94-2.81-11.86-1.2-8.44-2.97-16.71-3.75-25.28-2.4-26.38-5.31-52.07-5.31-78.35"/><path class="st22" d="M310.89 199.01c0 .49-.21.31-.63.31M302.46 189.02c-3.84 0-8.41 10.67-9.99 13.42-3.03 5.3-6.99 10.24-9.68 15.61-.26.52-2.4 3.84-2.18 4.06 1.61 1.61 7.4 1.11 9.68 1.87 2.18.73 11.15 6.02 13.42 3.75.99-.99.54-3.41.94-4.99 1.21-4.84 2.89-12.86 1.25-17.79l-3.44-15.93zM335.54 209.62c-.46 0-.24-.07-.63.31"/><path class="st22" d="M336.79 190.58c0-.31.31 2.77.31 3.75v9.05c0 6.69-.31 13.42-.31 19.98 0 .97-.61 5.32 0 5.93.63.63.67 2.23 1.25 2.81.68.68 4.35-.72 4.99-.94 4.1-1.37 17.04-5.49 17.79-6.24 0 0-1.15-9.68-1.87-11.86-3.09-9.27-5.33-19.21-13.73-23.41-3.72-1.86-9.93-1.67-12.17 2.81"/><path class="st12" d="M313.66 266.49v.36"/><path class="st8" d="M351.9 298.07s-3.38 5.53-6.89 7.85c-3.51 2.32 3.16 1.98 6.16-1.62 0 0-1.02 9.94-1.5 13.52-.53 3.98 1.46 1.67 3.05-7.12 0 0 .23 5.65.1 8.29-.13 2.64 2.61-2.31 2.14-9.37 0 0 .75 2.66.99 8.42.24 5.77 3.19-3.24.97-10.41 0 0 1.52 6.01 2.35 9.49.78 3.27 2.02-2 1.06-8.76 0 0-1.79-11.14-2.82-15.22-1.41-5.65-3.62-.93-5.61 4.93z"/><path class="st23" d="M181.44 246.96c-4.06-3.82-29.19-16.29-40.22 9.13-1.16 2.68-3.88 11.57-3.45 12.47.76 1.61 14.03 7.19 16.81 8.41.83.36 1.62-6.9 4.61-12.46 2.95-5.47 7.12-7.18 13.24-3.46 5.21 3.17 5.08 9.13 1.63 16.52-3.86 8.24-20.49 9.79-27.63 8.26-1.08.26-7.57 19.81-6.58 20.67 2.4 2.07 8.6 3.67 11.51 4.56 3.09.94 5.45 2.38 7.58-.35.99-1.26 2.32-9.79 2.91-10.04 1.33-.55 3.71-.28 5.38-.69 7.14-1.73 14.51-3.34 19.93-8.91 4.64-4.77 7.48-14.98 6.81-23.46-.51-6.48-5.74-14.26-12.53-20.65z" transform="rotate(-9.17 131.201 -328.57) scale(1.14913 1)"/><ellipse transform="matrix(-.35052 .98337 -.93739 -.38224 606.636 268.034)" class="st23" cx="161.58" cy="300.5" rx="10.99" ry="11.18"/><path class="st12" d="M279.94 249.27c-.27 0 1.15 1.85 1.63 2.18 2.19 1.46 4.34 2.44 6.71 3.63 5.84 2.92 11.55 3.31 17.4 5.26 2.21.74 5.56 1.15 7.07-.36.44-.44-.72-1.63-.91-1.99-1.05-2.1-2.04-3.38-4.35-4.53-2.23-1.12-3.73-3.77-5.98-4.89-3.91-1.96-7.68-4.2-11.24-5.98-1.06-.53-4.31-1.74-5.62-1.09-1.23.61-3.18.82-4.17 1.81-.7.7-.76 2.03-1.27 2.54-1.05 1.05.27 3.99 1.45 3.99"/><path class="st8" d="M299.83 251.08s6.31-1.58 9.46-4.43c3.16-2.84 1.18 3.99-3.12 5.85 0 0 10.08 2.42 13.74 3.19 4.06.85 1.29 2.11-7.8.68 0 0 5.54 2.23 8.18 3.02 2.64.79-2.92 1.91-9.8-1.06 0 0 2.45 1.72 8.09 4 5.65 2.28-3.99 2.19-10.53-2.64 0 0 5.57 3.7 8.82 5.79 3.04 1.96-2.48 1.41-8.92-1.97 0 0-10.58-5.79-14.37-8.29-5.25-3.48-.05-4.12 6.25-4.14z"/></g><g><path class="st24" d="M312.11 94.98c-3.67-4.88-28.23-23.22-44.13 1.63-1.68 2.62-6.03 11.55-5.73 12.59.54 1.86 13.68 10.48 16.42 12.34.82.56 2.85-7.02 6.95-12.35 4.03-5.23 8.73-6.22 14.6-1.02 4.99 4.42 3.87 10.75-1.01 17.92-5.45 8-23.33 6.3-30.65 3.24-1.18.06-11.3 19.58-10.39 20.69 2.2 2.69 8.5 5.64 11.44 7.17 3.12 1.62 5.38 3.63 8.09 1.15 1.26-1.15 4.08-9.96 4.75-10.11 1.5-.32 3.97.44 5.81.35 7.85-.4 15.93-.64 22.59-5.48 5.71-4.15 10.4-14.45 11.1-23.62.55-6.99-3.7-16.33-9.84-24.5z" transform="rotate(-9.17 131.201 -328.57) scale(1.14913 1)"/><ellipse transform="matrix(-.46453 .92817 -.8865 -.50174 640.463 -53.903)" class="st24" cx="287.8" cy="149.18" rx="11.79" ry="12.11"/><path class="st5" d="M31.81-49.67c1.61 2.13 2.88 4.49 3.64 6.78.81 2.43 1.45 4.89 2.12 7.31-2.36-4.45-3.65-9.47-5.76-14.09m22.07 36.85c2.14-9.59-7.82-13.46-10.25-17.31-2.25-3.57-2.13-7.91-3.14-11.97-1.53-6.17-4.66-11.41-9.61-15.46-5.41-4.42-10.83-5.3-15.86-3.89-5.4-.54-11.07 1.22-14.98 5.02-2.9 2.82-4.9 6.61-8.3 8.79-4.24 2.72-9.89 2.44-14.13 5.16-6.44 4.14-6.4 15.22.07 19.31 1.92 1.21 4.35 2 5.33 4.05.89 1.85.25 4.02-.01 6.05-.63 4.92 1.27 10.09 4.92 13.44 3.66 3.36 8.98 4.8 13.82 3.75 1.53-.33 3.17-.88 4.6-.25 1.29.57 1.99 1.93 2.77 3.11 2.86 4.39 7.93 7.25 13.16 7.43 5.23.18 10.49-2.33 13.64-6.51 1.73-2.3 2.83-5.01 4.34-7.46 3.42-5.58 11.44-3.41 13.63-13.26" transform="translate(404.408 208.514)"/><path class="st25" d="M28.45-93.42c.16.23.32.46.47.69a1.7 1.7 0 00-.67.06c-.05-.37-.11-.75-.17-1.12l.37.37M19.32-1.64c-.04-.06-.08-.13-.12-.19.02-.05.03-.1.05-.15.02.11.04.22.07.34m2.51-111.54c-1.69 2.83-.27 8.04-.31 8.02-1.79-.52-7.03 10.77-7.4 13.58-.94 7.09-.31 14.7-.35 21.86l-.03 5.08c-.03 5.38 3.81 111.76 3.81 111.76.09 1.7 1.4 2.96 2.85 2.73.98-.15 1.78-.97 2.04-2.07 2.26-9.52 16.85-60.18 7.93-80.32 0 0 7.22-18.64 10.25-28.44 3.37-10.89 11.25-24.72 6.74-35.01-5.62-12.78-17.99-14.51-25.53-17.19" transform="translate(386.744 360.338)"/><path class="st25" d="M29.71-47.95c0 .04.01.09.02.13.06.21.12.41.17.62l.31-.06c-.08-.46-.18-.94-.29-1.43-.05.25-.11.5-.21.74m9.06 20.64c0 .03.01.06.02.1l.03-.21c-.02.03-.03.07-.05.11m-7.87-9.58c.02-.03.05-.06.07-.09-.15.02-.3.02-.44.03.13.02.25.04.37.06M11.03 19.09C13.55 12.78 12.9 6.79 14 .32c5.69-9.52 4.97-16.52 3.4-20.96 0 0-4.15-3.77-4.54-6.45-.38-2.66 7.08-10.07 10.33-18.3-1.98-3.19-3.47-6.93-4.7-10.11-.62-1.62 1.09-3.6 2.8-2.77 1.26.61 2.35 1.37 3.31 2.25.45 0 .89.12 1.25.43.14.13.27.26.4.39.4.03.79.15 1.1.42.41.35.78.73 1.11 1.15-.85-2.23-1.93-4.27-3.25-5.58-1.08-1.08.13-2.63 1.45-1.86 3.63 2.12 4.94 5.96 6.36 9.69.39 1.01.84 2.18 1.19 3.4 1.84 2.42 3.84 5.4 8.19 3.72 11.28 10.52-.75 25.57-1.16 35.54-.42 10.11 3.53 14.2-1.1 23.2-2.07 4.02-3.77 6.51-8.36 7.19-6.18.92-12.61.82-18.83.71-1.62-.01-2.45-1.98-1.92-3.29" transform="translate(393.393 246.912)"/><path class="st26" d="M29.56-94.27c.19.2.38.41.56.62-.22.01-.44.06-.65.15-.11-.36-.21-.73-.33-1.09.14.11.29.21.42.32m3.95 92.14l-.14-.17.03-.16c.03.11.07.22.11.33m-13.3-110.76c-1.27 3.04.88 7.99.83 7.99-1.85-.27-5.43 11.66-5.4 14.49.07 7.15 1.77 14.6 2.75 21.69l.69 5.04c.73 5.33 19.59 110.1 19.59 110.1.33 1.67 1.81 2.73 3.21 2.3.95-.29 1.63-1.21 1.73-2.34.89-9.74 8.16-61.96-3.52-80.63 0 0 4.51-19.47 6.12-29.6 1.8-11.26 7.64-26.06 1.71-35.61-7.37-11.89-19.86-11.85-27.71-13.43" transform="translate(392.595 361.299)"/><path class="st2" d="M27.53-125.39l26.19 1.57s17.01 11.19 7.44 40.77l-7.64 61.68s1.51 23.18-7.21 33.13C28.67 31.92 7.3 20.35 8.81-28.22c2.47-79.4 18.72-97.17 18.72-97.17" transform="translate(381.935 368.656)"/><path class="st12" d="M415.14 205.25c0 1.25 1.55-3.11.79-2.81-5.52 4.99-10.72 5.31-14.84 5.31-10.78 0-17.45-6.61-20.29-16.54-3.06-10.7 1.3-27.12 3.43-37.77.57-2.83-.21-10.68-4.06-8.11-5.05 3.36-5.73 13.14-7.49 18.42-6.23 18.7-4.47 45.46 14.21 54.44 26.46 12.7 28.25-.36 28.25-12.94"/><path d="M27.53 46.34s3.35-8.21 1.33-17c0 0-5.69-4.08-5.78-8.56L34.65 4.59l-1.04-1.81L44.1-2.38 45.66 2s8.63 2.42 10.74 6.74c5.3 9.76 1.87 13.64 0 19.08-1.87 5.45-5.45 13.49-2.68 20.07l-26.19-1.55z" fill="#fffffb" transform="translate(381.935 196.931)"/><path class="st26" d="M26.67 14.99c4.17 9.01 10.6 6.91 15.15 5.66C48.6 18.8 63.4 4.16 59.23-4.85c-4.17-9.01-18.32-9.43-24.71-6.48S22.5 5.98 26.67 14.99" transform="translate(377.427 173.488)"/><path class="st5" d="M26.54 2.6s4.18-1.37 9.71-7.93c5.53-6.56 8.06-7.17 10.48-5 0 0 5.61-1.66 5.14 3.77-.47 5.43-2.36 17.77 3.32 21.48L64.16-5.4S49.77-17.65 39.5-16.92C29.23-16.17 22.39-6.51 26.54 2.6" transform="translate(376.737 173.308)"/><path class="st28" d="M27.57 3.93c1.16-.4 2.14-1.72 2.74-2.74.7-1.19.99-2.42.91-3.79-.09-1.57-2.23-1.35-2.74-.22-.36.8-.7 1.6-1.16 2.35-.48.79-1.24 1.33-1.73 2.1-.88 1.41.55 2.79 1.98 2.3" transform="translate(382.132 181.872)"/><path class="st28" d="M27.2-10.53c-1.88-.03-3.83 1.72-4.15 3.61-.39.99-.53 2.18.39 2.9.01.02.02.02.03.03.33.43.79.75 1.43.82 1.31.16 2.62-.8 3.46-1.71.76-.83 1.4-2.03 1.38-3.18-.02-1.42-1.13-2.44-2.54-2.47" transform="translate(380.204 185.228)"/><path class="st28" d="M29.54-7.38c-.23-.6-.64-1.13-1.28-1.52-1.48-.91-3.33-.36-4.38.95-.91 1.14-1.13 2.93-.99 4.34.16 1.77 1.48 3.34 3.38 3.16 1.41-.13 2.86-1.06 3.64-2.23 1.01-1.51.91-3.41-.37-4.7" transform="translate(392.495 186.976)"/><path class="st5" d="M31.91-11.75c.41 2.86 1.17 5.67 1.95 8.46L38-5.03c-1.29-2.85-2.53-5.73-3.93-8.53-1.35-2.69-5.68-.2-4.05 2.37 1.21 1.91 1.85 4.43 2.58 6.56.34 1 2.08 1.25 2.29 0 .23-1.43.39-2.63.23-4.09-.16-1.45-.57-2.84-.81-4.27-1.43.6-2.86 1.2-4.29 1.81 1.27 2.86 2.7 5.64 4.07 8.44 1.12 2.28 5.02.68 4.14-1.74-1.04-2.85-2.1-5.74-3.51-8.43-.89-1.69-3.04-.43-2.81 1.16" transform="translate(404.891 175.022)"/><path class="st29" d="M27.79 28.72s1.4.3.2 4.96c0 0-1.85 1.88-5.53 1.27-3.69-.61-22.67 3.86-27.58.93 0 0-.36-5.06 6.94-4.83 7.3.22 16.76-7 17.45-7.05.69-.05.96 1.78-.36 2.8 0 0 .84.16 2.61-.34 1.76-.5 3.71 3.28 6.27 2.26" transform="translate(383.28 379.802)"/><path class="st30" d="M22.46 33.42c.07-.13.4-.27.56-.21l-.09.32c.82.46 2.62 1.21 5.52 1.18 4.16-.03 16.63-1.36 18.9-1.77 2.18-.4 5.15.62 8.73-1.15 0 0 .04-.47.11-.51.08-.04.37.25.39.35l-.16 1.63s-3.41 1.21-7.49 1.2c-4.07-.01-14.15 1.6-18.4 1.8s-8.25-1.63-8.25-1.63.13-1.11.18-1.21" transform="translate(355.324 381.112)"/><path class="st29" d="M32.32 28.77s1.4.3.2 4.96c0 0-1.85 1.88-5.53 1.27-3.69-.62-22.67 3.86-27.58.93 0 0-.37-5.06 6.94-4.83 7.3.22 16.76-7 17.45-7.05.69-.05.96 1.78-.36 2.8 0 0 .84.16 2.61-.34 1.76-.49 3.71 3.29 6.27 2.26" transform="translate(407.065 380.1)"/><path class="st30" d="M26.99 33.47c.07-.13.4-.27.56-.21l-.09.32c.82.45 2.62 1.21 5.52 1.18 4.16-.03 16.63-1.36 18.9-1.77 2.18-.4 5.15.62 8.72-1.15 0 0 .04-.47.11-.51.08-.04.37.25.39.35l-.16 1.63s-3.41 1.22-7.49 1.2c-4.08-.01-14.15 1.6-18.4 1.8-4.25.2-8.25-1.63-8.25-1.63s.14-1.1.19-1.21" transform="translate(379.109 381.41)"/><path class="st12" d="M430.12 212.12c0 4.94 6.77 12.26 8.74 17.17 4.43 11.06 5.16 23.22 2.81 34.96-2.04 10.21-8.43 18.75-10.92 28.72-.51 2.04-2.63 10.21 2.18 7.8 5.92-2.96 8.58-11.34 11.55-16.54 8.01-14.01 12.9-25.41 11.6-41.79-1.43-18.04-17.56-45.27-25.34-37.49-2.51 1.97-.62 7.17-.62 7.17z"/><path class="st8" d="M432.55 289.06s-6.21 3.38-10.8 3.61c-4.59.23 1.93 3.7 6.73 1.95 0 0-6.36 8.94-8.76 12.11-2.66 3.51.48 2.43 6.76-5.09 0 0-2.85 5.55-4.41 8s3.73-.73 7.12-7.77c0 0-.73 2.98-3.63 8.64-2.9 5.67 4.78-1.29 6.57-9.42 0 0-1.82 6.63-2.92 10.45-1.04 3.58 3.01-.77 5.76-7.79 0 0 4.34-11.71 5.58-16.2 1.73-6.25-2.93-2.98-8 1.51zM376.86 155.92s-2.98-5.78-6.46-8.21c-3.49-2.43 3.62-2.06 6.41 1.71 0 0 .07-10.37-.02-14.11-.1-4.15 1.76-1.74 2.44 7.44 0 0 .91-5.9 1.08-8.65.17-2.75 2.52 2.41 1.19 9.78 0 0 1.12-2.77 2.05-8.79.94-6.02 3.04 3.38-.18 10.86 0 0 2.34-6.27 3.64-9.9 1.22-3.41 1.93 2.09.11 9.14 0 0-3.23 11.62-4.81 15.88-2.2 5.9-4 .98-5.45-5.15z"/></g></g></svg>
