<svg xmlns="http://www.w3.org/2000/svg" xmlns:xlink="http://www.w3.org/1999/xlink"><defs><style>
    .sprite-symbol-usage {display: none;}
    .sprite-symbol-usage:target {display: inline;}
  </style><symbol viewBox="0 0 31.49 31.49" fill="inherit" id="icon-arrow"><path d="M21.205 5.007a1.112 1.112 0 00-1.587 0 1.12 1.12 0 000 1.571l8.047 8.047H1.111A1.106 1.106 0 000 15.737c0 .619.492 1.127 1.111 1.127h26.554l-8.047 8.032c-.429.444-.429 1.159 0 1.587a1.112 1.112 0 001.587 0l9.952-9.952a1.093 1.093 0 000-1.571l-9.952-9.953z" /></symbol><symbol fill="inherit" stroke="inherit" viewBox="0 0 50 50" id="icon-chart">
  <path fill="none" stroke="none" d="M0 0h50v50H0z" />
  <circle cx="2" cy="25" r="2" />
  <circle cx="15" cy="19" r="2" />
  <circle cx="25" cy="11" r="2" />
  <circle cx="35" cy="17" r="2" />
  <circle cx="48" cy="5" r="2" />
  <circle cx="2" cy="39" r="2" />
  <circle cx="15" cy="41" r="2" />
  <circle cx="25" cy="33" r="2" />
  <circle cx="35" cy="43" r="2" />
  <circle cx="48" cy="31" r="2" />
  <path fill="none" stroke="inherit" stroke-linecap="round" stroke-miterlimit="10" stroke-width="2" d="M2 25l13-6 10-8 10 6L48 5M2 39l13 2 10-8 10 10 13-12" /></symbol><symbol stroke="inherit" viewBox="0 0 50 50" id="icon-internet">
  <path fill="none" stroke="none" d="M0 0h50v50H0z" />
  <circle cx="25" cy="25" fill="none" r="24" stroke="inherit" stroke-linecap="round" stroke-miterlimit="10" stroke-width="2" />
  <ellipse cx="25" cy="25" fill="none" rx="12" ry="24" stroke="inherit" stroke-linecap="round" stroke-miterlimit="10" stroke-width="2" />
  <path d="M6.365 40.438C10.766 37.729 17.479 36 25 36c7.418 0 14.049 1.682 18.451 4.325M43.635 9.563C39.234 12.271 32.521 14 25 14c-7.417 0-14.049-1.682-18.451-4.325M1 25h48M25 1v48" fill="none" stroke="inherit" stroke-miterlimit="10" stroke-width="2" /></symbol><symbol fill="inherit" stroke="inherit" viewBox="0 0 22 20" id="icon-iptv">
  <g fill="none" fill-rule="evenodd">
    <path d="M-1-2h24v24H-1z" />
    <path d="M9.5 15.15l3.98-2.28c.67-.38.67-1.35 0-1.74L9.5 8.85c-.67-.38-1.5.11-1.5.87v4.55c0 .77.83 1.26 1.5.88zM20 4h-7.59l2.94-2.94c.2-.2.2-.51 0-.71-.2-.2-.51-.2-.71 0L11 3.99 7.36.35c-.2-.2-.51-.2-.71 0-.2.2-.2.51 0 .71L9.59 4H2a2 2 0 00-2 2v12c0 1.1.9 2 2 2h18c1.1 0 2-.9 2-2V6a2 2 0 00-2-2zm-1 14H3c-.55 0-1-.45-1-1V7c0-.55.45-1 1-1h16c.55 0 1 .45 1 1v10c0 .55-.45 1-1 1z" />
  </g>
</symbol><symbol fill="inherit" viewBox="0 0 512 512" id="icon-iptv2"><path clip-rule="evenodd" d="M506.89 360.392S495.388 400.125 480.027 416c-19.464 20.844-42.788 25.266-52.805 26.484-3.282.25-6.673.461-10.064.672l-.016-.141c-4.47.359-9.063-.984-12.471-4.406-6.212-6.188-6.212-16.258 0-22.445 2.813-2.82 6.462-4.164 10.135-4.43l-.016-.18c.539-.039 1.109-.07 1.633-.109 8.29-1.008 26.355-1.094 42.491-18.319 12.721-13.109 16.846-42.891 16.846-42.891s4.235-34.961 4.235-69.921v-48.801c0-34.96-4.235-69.944-4.235-69.944s-4.125-29.777-16.846-42.89c-16.136-17.207-34.201-17.297-42.491-18.301-59.337-4.375-160.438-4.359-160.438-4.359s-101.086-.016-160.423 4.359c-8.291 1.004-26.355 1.094-42.483 18.301-12.705 13.113-16.847 42.89-16.847 42.89-.008 0-4.235 34.984-4.235 69.944v48.801c0 34.96 4.235 69.921 4.235 69.921-.008 0 4.142 29.781 16.847 42.891 16.127 17.226 37.318 16.687 46.757 18.483C133.763 414.922 255.984 416 255.984 416c8.845 0 16.002 7.172 16.002 16 0 8.844-7.157 16-16.002 16-.266 0-.523-.047-.789-.062-10.103-.109-126.113-1.406-165.283-5.258-11.392-2.195-38.467-5.836-57.954-26.68-15.362-15.875-26.84-55.608-26.84-55.608S0 326.071 0 283.736v-55.683c0-42.336 5.118-76.671 5.118-76.671s11.478-39.503 26.84-55.363c19.487-20.843 42.795-25.507 52.805-26.726C156.422 64 255.891 64 255.891 64h.219s99.469 0 171.112 5.293c10.017 1.219 33.341 5.883 52.805 26.726 15.361 15.859 26.863 55.363 26.863 55.363s5.11 34.335 5.11 76.671v55.683c0 42.335-5.11 76.656-5.11 76.656zM320.002 416c8.845 0 16.002 7.172 16.002 16 0 8.844-7.157 16-16.002 16S304 440.844 304 432c0-8.828 7.157-16 16.002-16zm-71.534-81.858l-.148.078c-2.368 1.438-5.11 2.297-8.072 2.297-8.697 0-15.752-7.055-15.752-15.75 0-6.062 3.461-11.266 8.486-13.905l-.016-.016 81.614-43.523c-.047-.039-.18-.07-.102-.109a7.998 7.998 0 004.517-7.211c0-2.906-1.609-5.453-3.931-6.836l-95.538-51.054a7.714 7.714 0 00-3.532-.844c-4.274 0-7.681 3.355-7.916 7.535l.016 99.042h-.125c0 .055.023.109.023.164 0 8.843-7.181 15.999-16.01 15.999-8.845 0-16.002-7.156-16.002-15.999V192.569c0-17.976 14.588-32.558 32.567-32.558a32.35 32.35 0 0116.792 4.664c.195.105.266.07.43.141l110.376 63.597c2.336 1.363 4.492 2.976 6.485 4.968 12.502 12.504 12.502 32.762 0 45.262-1.837 1.828-3.86 3.359-5.978 4.664l-87.537 50.444c-.218.141-.436.25-.647.391z" fill="inherit" fill-rule="evenodd" /></symbol><symbol viewBox="0 0 24 24" fill="inherit" id="icon-rocket"><path d="M11.861 19.066a.502.502 0 01-.354-.146L5.08 12.493a.5.5 0 01-.02-.687L9.877 6.41c3.367-3.939 8.85-6.488 13.631-6.407a.5.5 0 01.488.488c.111 4.784-2.467 10.264-6.416 13.638l-5.387 4.81a.495.495 0 01-.332.127zm-5.74-6.946l5.759 5.759 5.043-4.502c3.606-3.082 6.001-7.994 6.075-12.375-4.381.073-9.292 2.468-12.368 6.066z" /><path d="M13.776 22.726a.464.464 0 01-.143-.022c-.18-.06-.328-.198-.354-.386l-.686-4.787a.501.501 0 01.99-.142l.536 3.74a11.675 11.675 0 002.726-7.459.5.5 0 011 0c0 3.313-1.342 6.556-3.682 8.895-.1.1-.246.161-.387.161zM6.541 11.412a.431.431 0 01-.071-.005l-4.787-.686a.5.5 0 01-.28-.851 12.692 12.692 0 018.928-3.715.5.5 0 010 1c-2.721 0-5.391.983-7.464 2.725l3.745.537a.5.5 0 01-.071.995zM17.133 9.366a2.492 2.492 0 01-1.768-.731 2.505 2.505 0 010-3.536 2.503 2.503 0 013.536 0 2.505 2.505 0 010 3.536 2.491 2.491 0 01-1.768.731zm0-3.998c-.384 0-.769.146-1.061.438a1.504 1.504 0 000 2.122 1.505 1.505 0 002.122 0 1.504 1.504 0 000-2.122 1.503 1.503 0 00-1.061-.438zm1.414 2.914h.01zM.5 24a.5.5 0 01-.479-.643c.164-.547 1.633-5.381 2.703-6.451a3.094 3.094 0 014.371 0 3.094 3.094 0 010 4.371c-1.07 1.07-5.904 2.539-6.451 2.703A.55.55 0 01.5 24zm4.41-6.999c-.536 0-1.071.204-1.479.611-.577.578-1.537 3.159-2.171 5.128 1.968-.634 4.55-1.594 5.127-2.171a2.094 2.094 0 000-2.957 2.083 2.083 0 00-1.477-.611z" /></symbol><symbol viewBox="0 0 32 32" fill="inherit" id="icon-support">
  <path d="M16 2C9.4 2 4 7.3 4 13.9V18c0 2.8 2.2 5 5 5 .6 0 1-.4 1-1v-8c0-.6-.4-1-1-1-1.1 0-2.2.4-3 1v-.2C6 8.4 10.5 4 16 4s10 4.4 10 9.9v.1c-.8-.6-1.9-1-3-1-.6 0-1 .4-1 1v8c0 .6.4 1 1 1 .7 0 1.4-.2 2-.4-1 2.1-2.8 3.7-5 4.6V27c0-.6-.4-1-1-1h-3c-.6 0-1 .4-1 1v2c0 .6.4 1 1 1 6.6 0 12-5.2 12-11.6v-4.5C28 7.3 22.6 2 16 2z" />
  </symbol><symbol fill="inherit" viewBox="0 0 24 24" id="icon-tv"><path fill="none" d="M0 0h24v24H0V0z" /><path d="M10.5 17.15l3.98-2.28c.67-.38.67-1.35 0-1.74l-3.98-2.28c-.67-.38-1.5.11-1.5.87v4.55c0 .77.83 1.26 1.5.88zM21 6h-7.59l2.94-2.94c.2-.2.2-.51 0-.71s-.51-.2-.71 0L12 5.99 8.36 2.35c-.2-.2-.51-.2-.71 0s-.2.51 0 .71L10.59 6H3a2 2 0 00-2 2v12c0 1.1.9 2 2 2h18c1.1 0 2-.9 2-2V8a2 2 0 00-2-2zm-1 14H4c-.55 0-1-.45-1-1V9c0-.55.45-1 1-1h16c.55 0 1 .45 1 1v10c0 .55-.45 1-1 1z" /></symbol><symbol viewBox="0 0 511 511" fill="inherit" id="icon-www">
    <path d="M493.406 190.934h-9.14c-8.297-46.149-30.375-88.633-64.235-122.489C376.22 24.63 317.961.5 256 .5S135.781 24.629 91.969 68.445c-34.102 34.102-56.262 76.953-64.418 123.493h-8.957C8.34 191.938 0 200.278 0 210.53v67.57c0 10.25 8.34 18.594 18.594 18.594h14.504c12.386 43.016 37.086 81.98 71.812 111.813a7.51 7.51 0 009.785-11.39 217.42 217.42 0 01-24.75-25.013c11.477-4.835 23.203-8.824 35.016-12.093a248.912 248.912 0 0018.883 28.57c15.293 19.988 32.562 37.574 50.969 52.07a215.161 215.161 0 01-44.032-18.39 7.507 7.507 0 00-10.207 2.918 7.507 7.507 0 002.914 10.21c34.223 19.012 73.13 29.063 112.512 29.063 61.96 0 120.215-24.129 164.031-67.945 28.145-28.14 48.14-62.254 58.86-99.469h14.515c10.254 0 18.594-8.34 18.594-18.594v-68.918c0-10.25-8.34-18.593-18.594-18.593zm-24.426 0h-52.226a264.162 264.162 0 00-2.121-11.668c-4.461-21.536-11.434-42.098-20.805-61.508 1.383-.38 2.774-.75 4.149-1.14 9.558-2.735 21.726-6.454 33.68-11.567 18.667 25.629 31.335 54.84 37.323 85.883zm-67.277 1.004h-77.578c-.258-3.766-.54-7.532-.871-11.29-1.488-16.796-3.684-33.058-6.512-48.609 21.52-2.234 42.305-5.73 62.246-10.473 9.512 19.098 16.524 39.418 20.942 60.746a249.1 249.1 0 011.773 9.625zm7.711-112.88a221.671 221.671 0 0112.61 13.731c-10 4.016-20.063 7.07-28.176 9.39a411.172 411.172 0 01-7.094 1.95 263.81 263.81 0 00-15.672-24.777c-14.965-20.954-32.71-39.297-52.973-54.856 34.137 10.149 65.418 28.676 91.305 54.563zM279.152 16.743c31.883 17.922 58.703 41.914 79.711 71.336a249.634 249.634 0 0112.739 19.79c-18.543 4.23-37.836 7.366-57.793 9.386-8.692-40.465-21.856-75.32-38.344-100.867 1.23.105 2.46.222 3.687.355zM256 15.516c.184 0 .363.004.547.004 18.242 24.074 32.828 60.035 42.223 103.039-16.04 1.156-32.47 1.629-49.262 1.382-11.399-.164-23.598-.52-36.297-1.293 9.394-43.043 23.988-79.039 42.242-103.128.184 0 .363-.004.547-.004zm-19.465.87c-16.531 25.606-29.715 60.567-38.406 101.15-18.848-1.641-38.527-4.356-58.215-8.84a248.23 248.23 0 0113.223-20.622c21.008-29.418 47.828-53.41 79.71-71.336 1.227-.129 2.458-.246 3.688-.351zM195.2 132.357c-2.8 15.453-4.976 31.609-6.453 48.292a544.402 544.402 0 00-.867 11.29h-77.59c.531-3.211 1.117-6.422 1.781-9.625 4.352-21.016 11.235-41.047 20.532-59.903 21.195 5.086 42.37 8.121 62.597 9.945zm-92.613-53.297c25.887-25.887 57.168-44.414 91.305-54.563-20.266 15.559-38.012 33.902-52.973 54.856a262.546 262.546 0 00-16.094 25.55c-11.77-3.261-23.457-7.242-34.89-12.062 4-4.738 8.214-9.34 12.652-13.781zm-22.25 26.007c12.289 5.395 24.844 9.817 37.473 13.446-9.188 19.191-16.04 39.496-20.442 60.754a264.501 264.501 0 00-2.285 12.672H42.824c5.906-31.415 18.649-60.973 37.512-86.872zM18.594 281.68a3.583 3.583 0 01-3.578-3.582v-67.57a3.583 3.583 0 013.578-3.579h216.718a7.505 7.505 0 007.508-7.508 7.508 7.508 0 00-7.508-7.507h-32.39c.234-3.32.488-6.645.781-9.961 1.488-16.801 3.692-33.016 6.535-48.465 13.696.879 26.82 1.27 39.055 1.445a610.6 610.6 0 008.86.067 577.42 577.42 0 0043.59-1.633c2.85 15.484 5.062 31.742 6.554 48.586.293 3.316.55 6.64.785 9.96h-26.895a7.508 7.508 0 100 15.016h116.454v74.727H18.594zM396.84 296.69a238.914 238.914 0 01-17.899 46.68c-19.906-4.73-40.644-8.234-62.125-10.469 2.157-11.738 3.926-23.84 5.293-36.207h74.73zm-89.82 0c-1.356 11.926-3.098 23.582-5.211 34.88-17.094-1.298-34.61-1.837-52.516-1.575-12.258.176-25.406.566-39.125 1.45a493.571 493.571 0 01-5.188-34.755zM80.383 359.867a216.768 216.768 0 01-31.621-63.176h50.906c4.312 17.172 10.367 33.848 18.137 49.75-12.614 3.625-25.153 8.04-37.422 13.426zm34.793-63.176h74.703a511.326 511.326 0 005.246 35.914c-20.195 1.82-41.336 4.856-62.492 9.926-7.387-14.636-13.215-30.004-17.457-45.84zm117.597 151.473c-28.09-15.824-54.703-39.559-77.003-68.707a233.129 233.129 0 01-15.653-23.25c19.606-4.453 39.2-7.152 57.969-8.789 2.969 13.637 6.488 26.691 10.543 38.96 5.984 18.083 15.379 42.204 28.012 62.177a185.11 185.11 0 01-3.868-.39zM256 449.437c-.184 0-.363-.007-.547-.007-11.82-15.66-23.062-39.035-32.566-67.766-3.692-11.16-6.914-23.004-9.672-35.363 12.7-.77 24.894-1.13 36.293-1.293 16.793-.238 33.219.234 49.258 1.39-2.754 12.325-5.973 24.137-9.653 35.266-9.5 28.73-20.746 52.106-32.566 67.766-.184.004-.363.007-.547.007zm19.344-.859c12.64-19.976 22.043-44.11 28.023-62.2 4.031-12.183 7.528-25.136 10.48-38.671 19.872 2.012 39.079 5.125 57.544 9.328a232.9 232.9 0 01-15.16 22.422c-22.325 29.176-48.965 52.93-77.083 68.754-1.265.133-2.535.254-3.804.367zm134.07-62.687c-26.156 26.156-57.82 44.796-92.367 54.87 18.457-14.515 35.777-32.14 51.11-52.179a248.033 248.033 0 0018.437-27.805 458.48 458.48 0 017.254 1.993c8.105 2.32 18.16 5.375 28.156 9.386-3.988 4.723-8.168 9.317-12.59 13.735zm22.219-26c-11.945-5.106-24.106-8.825-33.656-11.555-1.375-.395-2.766-.762-4.149-1.14 7.895-16.02 14.04-32.84 18.414-50.157h50.953a214.566 214.566 0 01-31.562 62.852zm65.351-81.79a3.583 3.583 0 01-3.578 3.579h-79.754v-74.73h79.754a3.586 3.586 0 013.578 3.581zm0 0" fill="inherit" />
    <path d="M56.816 258.836c0 1.11-1.668 2.273-3.609 2.273-2.105 0-3.55-1.164-3.55-2.273v-37.223c0-1.332 1.445-2.222 3.55-2.222 1.941 0 3.61.89 3.61 2.222v17.028c.996-2.16 3.492-4.215 6.988-4.215 5.101 0 9.539 5.105 9.539 11.262v13.144c0 1.5-1.828 2.277-3.606 2.277-1.664 0-3.55-.777-3.55-2.277v-13.144c0-2.497-2.22-4.993-4.825-4.993-2.273 0-4.55 1.883-4.55 4.993v13.148zm0 0M89.102 252.121c0 2.164.777 2.941 3.109 2.941h2.164c2.05 0 3.05 1.5 3.05 2.997 0 1.554-1 3.05-3.05 3.05h-2.164c-6.656 0-10.262-2.718-10.262-8.988V225.22c0-1.332 1.883-2.219 3.551-2.219 1.828 0 3.605.887 3.605 2.219v9.539h6.547c1.164 0 1.828 1.332 1.828 2.61 0 1.327-.664 2.605-1.828 2.605h-6.547v12.148zm0 0M111.684 252.121c0 2.164.773 2.941 3.105 2.941h2.164c2.05 0 3.05 1.5 3.05 2.997 0 1.554-1 3.05-3.05 3.05h-2.164c-6.656 0-10.262-2.718-10.262-8.988V225.22c0-1.332 1.887-2.219 3.551-2.219 1.832 0 3.606.887 3.606 2.219v9.539h6.546c1.165 0 1.829 1.332 1.829 2.61 0 1.327-.664 2.605-1.829 2.605h-6.546zm0 0M133.93 236.977v1.664a8.722 8.722 0 017.488-4.215c5.547 0 9.93 5.105 9.93 11.262v4.546c0 5.938-4.547 11.375-9.707 11.375-3.328 0-6.215-2.109-7.266-4.382v13.867c0 1.164-1.664 2.273-3.664 2.273-2.05 0-3.492-1.11-3.492-2.273v-34.117c0-1.332 1.496-2.22 3.383-2.22 1.941 0 3.328.888 3.328 2.22zm10.261 8.71c0-2.496-2.273-4.992-5.046-4.992-2.329 0-4.77 1.883-4.77 4.993v5.546c0 1.164 2.05 4.106 4.879 4.106 2.61 0 4.937-2.55 4.937-5.106zm0 0M171.71 253.785c0-4.879-13.148-1.828-13.148-11.094 0-3.937 2.497-8.265 9.93-8.265 4.496 0 8.82 1.554 8.82 3.605 0 1-.94 3.442-2.605 3.442-1.332 0-3.05-1.61-6.102-1.61-2.773 0-3.882 1.387-3.882 2.496 0 4.051 13.312 1.278 13.312 11.149 0 4.941-3.66 8.101-10.207 8.101-5.656 0-10.039-2.332-10.039-4.773 0-1.164.996-3.16 2.383-3.16 1.61 0 2.832 2.496 7.492 2.496 3.27 0 4.047-1.277 4.047-2.387zm0 0M192.738 241.473c0 1.996-1.718 3.77-3.715 3.77-2.164 0-3.773-1.774-3.773-3.77 0-2.055 1.61-3.774 3.773-3.774 1.997 0 3.715 1.719 3.715 3.774zm0 16.195c0 2-1.718 3.773-3.715 3.773-2.164 0-3.773-1.773-3.773-3.773 0-2.05 1.61-3.77 3.773-3.77 1.997 0 3.715 1.72 3.715 3.77zm0 0M224.414 220.836c0 .332-.055.664-.223.996l-19.914 40.277c-.39.774-1.277 1.22-2.164 1.22-1.61 0-2.664-1.274-2.664-2.442 0-.332.113-.664.278-.942l19.914-40.441c.39-.777 1.168-1.164 2-1.164 1.332 0 2.773.996 2.773 2.496zm0 0M241.172 220.836c0 .332-.059.664-.223.996l-19.918 40.277c-.386.774-1.273 1.22-2.16 1.22-1.61 0-2.664-1.274-2.664-2.442 0-.332.11-.664.277-.942l19.914-40.441c.391-.777 1.165-1.164 2-1.164 1.329 0 2.774.996 2.774 2.496zm0 0M273.238 260.441c-.39.946-1.61 1.278-2.828 1.278-1.387 0-2.61-.446-2.941-1.278l-4.274-12.093-4.215 12.039c-.332.886-1.664 1.332-3.05 1.332-1.164 0-2.387-.332-2.774-1.332l-8.543-21.91c-.222-.446-.277-.778-.277-1.055 0-1.719 2.773-2.942 4.66-2.942.942 0 1.774.387 2.05 1.165l5.548 15.753 4.16-13.703c.39-1.273 1.332-1.441 2.441-1.441 1.055 0 2.055.168 2.442 1.441l4.105 13.758 5.602-15.808c.277-.723 1.054-1.165 2.054-1.165 1.774 0 4.606 1.22 4.606 2.997 0 .332-.055.718-.223 1zm0 0M315.012 260.441c-.387.946-1.606 1.278-2.828 1.278-1.387 0-2.606-.446-2.942-1.278l-4.27-12.093-4.218 12.039c-.332.886-1.66 1.332-3.05 1.332-1.165 0-2.384-.332-2.774-1.332l-8.543-21.91c-.223-.446-.278-.778-.278-1.055 0-1.719 2.774-2.942 4.66-2.942.942 0 1.774.387 2.055 1.165l5.547 15.753 4.16-13.703c.387-1.273 1.332-1.441 2.442-1.441 1.054 0 2.05.168 2.437 1.441l4.106 13.758 5.605-15.808c.277-.723 1.055-1.165 2.05-1.165 1.778 0 4.606 1.22 4.606 2.997 0 .332-.054.718-.222 1zm0 0M356.79 260.441c-.388.946-1.606 1.278-2.83 1.278-1.386 0-2.605-.446-2.94-1.278l-4.27-12.093-4.219 12.039c-.332.886-1.664 1.332-3.05 1.332-1.165 0-2.383-.332-2.774-1.332l-8.543-21.91c-.223-.446-.277-.778-.277-1.055 0-1.719 2.773-2.942 4.66-2.942.941 0 1.773.387 2.055 1.165l5.546 15.753 4.16-13.703c.387-1.273 1.329-1.441 2.438-1.441 1.055 0 2.055.168 2.442 1.441l4.105 13.758 5.605-15.808c.274-.723 1.055-1.165 2.051-1.165 1.774 0 4.606 1.22 4.606 2.997 0 .332-.055.718-.223 1zm0 0M477.14 228.3l-8.097-1.175-3.621-7.34a11.192 11.192 0 00-10.102-6.277c-4.32 0-8.191 2.406-10.101 6.277l-3.621 7.34-8.098 1.176a11.194 11.194 0 00-9.094 7.664 11.197 11.197 0 002.852 11.55l5.86 5.712-1.384 8.066c-.734 4.254.985 8.477 4.48 11.016a11.19 11.19 0 0011.864.859l7.242-3.809 7.242 3.809a11.308 11.308 0 005.254 1.305c2.325 0 4.637-.73 6.61-2.164a11.198 11.198 0 004.48-11.016l-1.383-8.066 5.86-5.711a11.205 11.205 0 002.851-11.551 11.2 11.2 0 00-9.093-7.664zm-11.511 15.552a11.275 11.275 0 00-3.238 9.968l.433 2.52-2.261-1.188a11.258 11.258 0 00-10.485 0l-2.262 1.188.43-2.52a11.254 11.254 0 00-3.238-9.968l-1.828-1.786 2.527-.367a11.271 11.271 0 008.484-6.16l1.13-2.293 1.132 2.293a11.258 11.258 0 008.48 6.16l2.528.367zm0 0" fill="inherit" />
    </symbol><symbol fill-rule="evenodd" viewBox="0 0 2048 2048" id="icon-youtube"><path d="M1688.02 565.913c-30.376-27.574-68.845-45.658-110.919-50.307-91.447-10.235-183.723-15.387-276.305-17.97-91.988-2.566-184.37-2.566-276.547-2.512-92.164-.054-184.54-.054-276.54 2.512-92.593 2.583-184.896 7.735-276.395 17.97-42.033 4.651-80.486 22.744-110.834 50.33-30.155 27.408-52.31 64.218-62.002 106.533-13.084 56.72-19.703 115.899-23.047 175.445-3.357 59.798-3.44 118.839-3.44 176.156 0 57.24 0 116.205 3.278 176.039 3.262 59.519 9.801 118.696 22.892 175.426 9.75 42.331 31.916 79.152 62.069 106.56 30.33 27.57 68.744 45.651 110.766 50.303 91.51 10.234 183.814 15.386 276.407 17.968 91.998 2.565 184.375 2.565 276.552 2.512 92.218.053 184.593.053 276.579-2.512 92.58-2.582 184.856-7.734 276.356-17.968 42.013-4.651 80.42-22.727 110.763-50.29 30.167-27.404 52.364-64.229 62.178-106.573 13.033-56.732 19.573-115.91 22.847-175.426 3.23-58.693 3.257-118.234 3.253-176.04h.062v-2.901h-.062c.002-114.85.002-236.492-25.783-348.698-9.75-42.333-31.94-79.15-62.128-106.556zm-869.905 686.521V739.357l23.375 12.205c70.804 36.967 141.403 73.807 212.066 110.68 85.009 44.358 170.118 88.77 255.803 133.518l27.168 14.189-27.23 14.123-233.934 121.313a754571.677 754571.677 0 01-233.935 121.236l-23.313 12.076v-26.263z" fill="inherit" /><path fill="none" d="M0 0h2048v2048H0z" /></symbol></defs><use id="icon-arrow-usage" xlink:href="#icon-arrow" class="sprite-symbol-usage" /><use id="icon-chart-usage" xlink:href="#icon-chart" class="sprite-symbol-usage" /><use id="icon-internet-usage" xlink:href="#icon-internet" class="sprite-symbol-usage" /><use id="icon-iptv-usage" xlink:href="#icon-iptv" class="sprite-symbol-usage" /><use id="icon-iptv2-usage" xlink:href="#icon-iptv2" class="sprite-symbol-usage" /><use id="icon-rocket-usage" xlink:href="#icon-rocket" class="sprite-symbol-usage" /><use id="icon-support-usage" xlink:href="#icon-support" class="sprite-symbol-usage" /><use id="icon-tv-usage" xlink:href="#icon-tv" class="sprite-symbol-usage" /><use id="icon-www-usage" xlink:href="#icon-www" class="sprite-symbol-usage" /><use id="icon-youtube-usage" xlink:href="#icon-youtube" class="sprite-symbol-usage" /></svg>