<svg height="32" width="32" viewbox="0 0 32 32" xmlns="http://www.w3.org/2000/svg"><g fill="inherit"><path d="M16 0C7.164 0 0 7.164 0 16c0 8.837 7.164 16 16 16 8.837 0 16-7.163 16-16 0-8.836-7.163-16-16-16zm0 30C8.268 30 2 23.732 2 16S8.268 2 16 2s14 6.268 14 14-6.268 14-14 14z" fill="transparent" /><path d="M25 14.981H9.407l5.2-5.275c.39-.394.39-1.034 0-1.428a.994.994 0 00-1.414 0l-6.899 6.999a1.02 1.02 0 00-.294.714c0 .263.108.526.293.714l6.899 6.999a.993.993 0 001.414 0 1.017 1.017 0 000-1.429L9.406 17H25c.552 0 1-.452 1-1.01 0-.557-.448-1.009-1-1.009z"/></g></svg>
