<svg xmlns="http://www.w3.org/2000/svg" xmlns:xlink="http://www.w3.org/1999/xlink"><defs>
<clipPath id="clip0">
<rect width="11" height="9" fill="white"/>
</clipPath>

<clipPath id="clip0">
<rect width="40" height="40" fill="white"/>
</clipPath>

<clipPath id="clip0">
<rect width="24" height="24" fill="inherit"/>
</clipPath>
</defs><symbol id="icon-arrow-down" viewBox="0 0 10 6">
<path d="M9 1L5 5L1 1"/>
</symbol><symbol id="icon-arrow-right" viewBox="0 0 6 10">
<path d="M1 1L5 5L1 9"/>
</symbol><symbol id="icon-close-btn" viewBox="0 0 22 22">
<path d="M1 1L21 21"/>
<path d="M21 1L1 21"/>
</symbol><symbol id="icon-developer" viewBox="0 0 32 32">
<rect width="32" height="32" rx="16" fill="#191A1C"/>
<path d="M9.88344 15.4928C9.88344 15.4928 10.3799 15.4378 11.3195 13.8486C11.3195 13.8486 11.3408 13.8208 11.376 13.7674C11.8423 15.9403 14.0866 15.5887 14.0866 15.5887L14.3019 14.7461C12.7943 15.0746 12.7748 13.2872 12.7748 13.2872L15.085 14.0885C15.2901 13.8621 15.4205 13.581 15.4756 13.2787C15.4974 14.0026 15.4324 14.783 15.2223 15.5887C15.2223 15.5887 16.6187 15.054 17.5847 15.9859C17.5847 15.9859 17.4923 14.3676 17.0095 12.6944C17.2864 12.5236 17.8784 12.2716 17.9829 13.1638C18.1201 14.3352 19.6861 15.9584 21.1546 13.9445C21.1546 13.9445 20.2346 14.4788 19.7254 13.3693C19.2491 12.3313 19.0642 10.9707 17.777 11.3701C18.5139 10.7836 19.2032 9.83397 18.3352 8.95116C17.1779 7.77387 15.3735 9.17944 15.0557 9.44394C14.8478 9.30778 14.6232 9.20254 14.3803 9.13603C14.3803 9.13603 15.1247 10.4186 15.3886 12.2707C15.2196 11.7917 14.8658 11.3488 14.3215 11.0678C13.6735 10.7327 12.8126 10.7933 12.1751 11.2417C12.31 10.1206 12.2783 8.61952 11.8156 6.69775L9.57044 7.87598C9.57044 7.87598 11.3195 11.3829 9.72694 13.7119C9.72694 13.7119 7.69062 12.424 8.96987 9.82117L7.66488 9.57447C7.66488 9.57447 6.99183 10.3711 7.07733 11.6227C7.17644 13.0692 8.13765 15.0262 9.88344 15.4928ZM17.4545 9.72717C17.9633 10.3833 17.2018 10.9713 16.5406 11.0987C16.5406 11.0987 16.4193 10.3239 15.9794 9.81961C15.9794 9.81961 16.9456 9.07076 17.4545 9.72717ZM14.1037 11.6627C14.5268 11.8138 14.7578 12.3135 14.6765 12.8368L12.9872 12.192C13.2321 11.7479 13.6919 11.5156 14.1037 11.6627ZM22.2055 13.4923H22.2339C21.9833 14.3964 21.536 14.9119 20.9786 15.287C19.9603 15.9721 18.629 15.5887 18.629 15.5887C18.9293 16.4652 22.2055 18.1091 23.2235 15.2049C24.2415 12.3007 22.4013 10.3143 22.4013 10.3143C22.496 11.5165 22.4587 12.4262 22.3194 13.1307C22.0508 13.1716 20.626 13.2559 21.2656 10.2596L19.8038 9.68408C19.8038 9.68408 19.0728 13.794 22.2055 13.4923Z" fill="white"/>
<path d="M23.2625 17.7256C21.5268 17.2871 20.4171 17.8489 20.4171 17.8489C20.4171 17.8489 21.4614 18.1912 21.6442 19.9587C21.8268 21.7259 19.9863 22.945 19.9863 22.945C19.9863 22.945 22.0226 23.3422 23.5498 22.6708C25.077 21.9997 25.1163 20.3559 25.1163 20.1229C25.1163 19.89 24.9986 18.164 23.2625 17.7256ZM22.8232 21.4526C22.7924 21.4542 22.7622 21.4532 22.7318 21.4514C22.9974 21.1641 23.1602 20.7116 23.1395 20.2085C23.1146 19.5955 22.825 19.0809 22.4312 18.8607C22.5211 18.8276 22.6161 18.8064 22.7152 18.8017C23.3273 18.7742 23.8477 19.3454 23.8776 20.0773C23.9075 20.8096 23.4356 21.4255 22.8232 21.4526ZM20.8413 20.1698C20.8413 18.8426 19.8026 17.7665 18.5213 17.7665C18.3944 17.7665 18.2698 17.7777 18.1488 17.798C17.813 16.9358 17.0062 16.3281 16.064 16.3281C14.9184 16.3281 13.9732 17.2266 13.8315 18.3885C12.838 18.5803 11.7632 19.2429 11.4041 21.116L12.5987 21.4039C12.5987 21.4039 12.8369 20.7066 13.4756 20.0792L13.4993 20.1504C13.4993 20.1504 13.6561 22.2052 12.07 22.4519C10.484 22.6986 9.52454 20.8696 10.0142 19.6573C10.5038 18.4448 11.5023 18.7667 11.5023 18.7667L13.4339 16.8624L12.7093 16.5473C10.6665 15.7938 8.03673 17.1913 7.87993 20.2528C7.72342 23.3147 10.9931 25.185 13.2644 23.6233C14.4945 22.7773 14.7365 21.5335 14.7001 20.5711C15.0788 20.8743 15.551 21.0545 16.064 21.0545C16.1634 21.0545 16.2607 21.047 16.3566 21.0342C16.6917 21.9338 17.5343 22.5725 18.5213 22.5725C19.8026 22.5725 20.8413 21.4967 20.8413 20.1698ZM16.5631 18.8813C16.5409 18.9179 16.5193 18.9547 16.4986 18.9925C16.3512 19.208 16.111 19.3488 15.8388 19.3488C15.6406 19.3488 15.459 19.2742 15.3175 19.1502C15.4797 19.1243 15.6495 19.1068 15.8291 19.1024L15.7705 18.486C15.7705 18.486 15.4767 18.3932 15.0397 18.3467C15.1072 17.9473 15.4388 17.6434 15.8388 17.6434C16.2876 17.6434 16.6515 18.0251 16.6515 18.4963C16.6515 18.6349 16.6193 18.7655 16.5631 18.8813ZM18.0219 20.8696C17.7799 20.8696 17.5627 20.7591 17.4121 20.5842C17.8414 20.2469 18.1518 19.7523 18.2665 19.1824C18.6014 19.2917 18.8443 19.6195 18.8443 20.0065C18.8443 20.483 18.476 20.8696 18.0219 20.8696Z" fill="white"/>
</symbol><symbol id="icon-dotted-line" viewBox="0 0 377 3">
<path d="M376 1.00003L-1.90735e-06 1.99997" stroke="white" stroke-dasharray="10 5"/>
</symbol><symbol id="icon-flag-de" viewBox="0 0 11 9">
<rect width="10.9999" height="3" fill="#20262C"/>
<rect y="3" width="10.9999" height="3" fill="#D31111"/>
<rect y="6" width="10.9999" height="3" fill="#FFE600"/>
</symbol><symbol id="icon-flag-gb" viewBox="0 0 11 9">
<g clip-path="url(#clip0)">
<path d="M-0.69043 -0.083374V9.08329H11.6905V-0.083374H-0.69043Z" fill="#012169"/>
<path fill-rule="evenodd" clip-rule="evenodd" d="M4.10877 4.5L-1 0.669153L-0.443509 -1L5.5 3.45678L11.4435 -1L12 0.669153L6.89123 4.5L12 8.33085L11.4435 10L5.5 5.54322L-0.443509 10L-1 8.33085L4.10877 4.5Z" fill="white"/>
<path fill-rule="evenodd" clip-rule="evenodd" d="M4.55909 4.50004L-1 0.532754L-0.623636 -0.541626L5.5 3.82855L11.6236 -0.541626L12 0.532754L6.44091 4.50004L12 8.46733L11.6236 9.54171L5.5 5.17153L-0.623636 9.54171L-1 8.46733L4.55909 4.50004Z" fill="#C8102E"/>
<path fill-rule="evenodd" clip-rule="evenodd" d="M4.4683 2.97218V-0.083374H6.53179V2.97218H11.6905V6.02774H6.53179V9.08329H4.4683V6.02774H-0.69043V2.97218H4.4683Z" fill="white"/>
<path fill-rule="evenodd" clip-rule="evenodd" d="M4.881 3.58329V-0.083374H6.11909V3.58329H11.6905V5.41663H6.11909V9.08329H4.881V5.41663H-0.69043V3.58329H4.881Z" fill="#C8102E"/>
</g>

</symbol><symbol id="icon-flag-ru" viewBox="0 0 11 9">
<rect width="10.9999" height="3" fill="#F4F4F4"/>
<rect y="3" width="10.9999" height="3" fill="#1D6BB9"/>
<rect y="6" width="10.9999" height="3" fill="#D31111"/>
</symbol><symbol id="icon-lines" viewBox="0 0 56 7">
<rect width="56" height="1" fill="#20262C"/>
<rect y="3" width="56" height="1" fill="#20262C"/>
<rect y="6" width="56" height="1" fill="#20262C"/>
</symbol><symbol id="icon-pdf" viewBox="0 0 40 40">
<g clip-path="#clip0">
<path d="M26.1507 0H5.80061C5.30057 0 4.85059 0.400014 4.85059 0.950024V39.05C4.85059 39.55 5.2506 40 5.80061 40H34.2007C34.7007 40 35.1507 39.6 35.1507 39.05V9.00003C35.1507 8.75002 35.0507 8.5 34.9007 8.35L26.8006 0.250019C26.6006 0.100024 26.4006 0 26.1507 0Z" fill="#EBF0F3"/>
<path d="M27.4507 8.60003H35.0508C35.0008 8.5 34.9507 8.40006 34.8508 8.35001L30.8008 4.29997L26.8007 0.250015C26.7007 0.14999 26.6507 0.10002 26.5507 0.0500488V7.65C26.5007 8.20001 26.9507 8.60003 27.4507 8.60003Z" fill="#D5D6DB"/>
<path d="M11.4495 35.35C10.7495 35.35 10.1995 34.95 9.94945 34.7C9.09945 33.7 9.09945 32.85 9.24944 32.3C9.34947 31.7999 9.64946 31.3499 10.0994 31.05C10.7495 30.5499 12.5494 29.3 15.1995 28.2C16.5995 25.65 17.5495 23.5999 18.1994 21.95C17.0994 19.85 16.6994 18.15 16.5995 17.3C16.4994 16.5999 16.5495 15.8999 16.7495 15.3C17.2495 13.7 18.3494 13.6499 18.7994 13.7C18.8994 13.7 20.6494 13.95 20.9494 16.4499C20.9494 16.55 21.1494 18.1499 19.7994 21.8999C20.6494 23.3499 21.8494 24.95 23.6995 26.5C25.4494 26.5 27.3495 26.65 29.3495 27.15C29.7995 27.25 30.1995 27.5 30.4995 27.85C30.9995 28.4 31.0994 29.1 30.8494 29.8C30.8494 29.8 30.7494 30.15 30.4494 30.5C29.8994 31.25 28.8494 31.5 27.9994 31.05C26.0995 30.05 24.4994 29.0001 23.1994 27.9001C20.5494 28.0001 18.1994 28.6001 16.2994 29.35C15.4494 30.9 14.3994 32.6 13.1994 34.5C12.9494 34.85 12.6494 35.15 12.2493 35.3C11.8995 35.3 11.6495 35.35 11.4495 35.35ZM13.8995 30.3C12.3994 31.1 11.3495 31.8 10.9494 32.15C10.7994 32.3 10.6495 32.45 10.6495 32.6C10.5494 32.9499 10.6994 33.3 11.0495 33.7C11.0495 33.7 11.3495 33.95 11.6495 33.85C11.7495 33.8 11.8494 33.75 11.8995 33.6C12.5995 32.45 13.2995 31.3499 13.8995 30.3ZM25.5495 27.9C26.4494 28.5 27.4494 29.15 28.5494 29.7C28.7494 29.8 28.9994 29.75 29.1494 29.55C29.2994 29.35 29.3494 29.2 29.3494 29.2C29.4494 28.95 29.4494 28.8501 29.2994 28.7C29.1994 28.6 29.0494 28.5 28.8494 28.45C27.7495 28.15 26.6495 28 25.5495 27.9ZM19.0494 23.45C18.5494 24.6 17.9494 25.9 17.1495 27.4C18.4995 27 19.9495 26.65 21.5495 26.5C20.5495 25.45 19.6995 24.3999 19.0494 23.45ZM18.5495 15.0499C18.3495 15.0499 18.1995 15.2499 18.0494 15.7C17.8994 16.1 17.8994 16.55 17.9494 17.05C18.0494 17.65 18.2494 18.65 18.7994 19.95C19.5494 17.55 19.4495 16.55 19.4495 16.55C19.2995 15.1999 18.5995 15.0499 18.5495 15.0499Z" fill="#E56353"/>
</g>

</symbol><symbol id="icon-phone" viewBox="0 0 24 24">
<g clip-path="#clip0">
<path d="M20.4835 3.51307C15.7965 -1.17251 8.19853 -1.17139 3.51295 3.51564C-1.17263 8.20267 -1.1715 15.8006 3.51553 20.4862C8.20256 25.1718 15.8005 25.1707 20.4861 20.4836C22.7364 18.2327 24.0002 15.1799 23.9995 11.9971C23.9989 8.81472 22.7341 5.76297 20.4835 3.51307ZM18.1731 16.7155C18.1726 16.716 18.1721 16.7166 18.1715 16.7171V16.7131L17.5635 17.3171C16.7772 18.1134 15.632 18.441 14.5435 18.1811C13.4468 17.8876 12.4043 17.4203 11.4555 16.7971C10.574 16.2337 9.75703 15.5751 9.0195 14.8331C8.34089 14.1595 7.73123 13.4198 7.19948 12.6251C6.61786 11.77 6.1575 10.8385 5.83148 9.85708C5.45775 8.70414 5.76745 7.43903 6.6315 6.5891L7.34348 5.87711C7.54144 5.67827 7.86309 5.67757 8.06189 5.87552C8.0624 5.87603 8.06297 5.87655 8.06348 5.87711L10.3115 8.1251C10.5103 8.32305 10.511 8.64471 10.3131 8.8435C10.3125 8.84402 10.312 8.84453 10.3115 8.8451L8.99147 10.1651C8.61272 10.5397 8.56509 11.135 8.87948 11.5651C9.3569 12.2203 9.88523 12.8369 10.4595 13.4091C11.0998 14.0522 11.7958 14.6371 12.5395 15.1571C12.9692 15.4569 13.5517 15.4063 13.9235 15.0371L15.1995 13.7411C15.3974 13.5423 15.7191 13.5416 15.9179 13.7395C15.9184 13.7401 15.9189 13.7406 15.9195 13.7411L18.1715 15.9971C18.3704 16.195 18.3711 16.5167 18.1731 16.7155Z" fill="inherit"/>
</g>

</symbol></svg>