<svg width="56" height="56" viewBox="0 0 56 56" fill="red" stroke="blue" xmlns="http://www.w3.org/2000/svg">
  <path
    d="M10.7512 24.7755C10.6114 24.7755 10.4717 24.7399 10.3435 24.6686C6.89596 22.8397 6.17383 20.7732 6.17383 19.3599C6.17383 16.9014 8.31692 14.6211 12.2071 12.9466C15.8993 11.367 20.7329 10.5 25.8227 10.5C30.9475 10.5 35.7928 11.3314 39.4617 12.8278C43.3985 14.4311 45.5648 16.6758 45.5648 19.1223C45.5648 19.6093 45.1688 20.0131 44.6913 20.0131C44.2138 20.0131 43.8178 19.6093 43.8178 19.1223C43.8178 17.4715 41.9891 15.785 38.8211 14.4786C35.3386 13.0653 30.7262 12.2815 25.8227 12.2815C20.9658 12.2815 16.3652 13.101 12.8943 14.5974C9.73789 15.9513 7.92092 17.6853 7.92092 19.3599C7.92092 21.1057 9.94754 22.4477 11.1472 23.1009C11.5782 23.3266 11.7412 23.8729 11.5199 24.3005C11.3685 24.6093 11.0657 24.7755 10.7512 24.7755Z" />
  <path
    d="M22.6428 27.6496C22.6195 27.6496 22.6078 27.6496 22.5845 27.6496C19.1952 27.4239 16.0271 26.842 13.4181 25.975C12.9639 25.8206 12.7076 25.3218 12.8591 24.8467C13.0105 24.3836 13.4997 24.1223 13.9655 24.2767C16.4464 25.108 19.4631 25.6543 22.701 25.8681C23.1785 25.9037 23.5512 26.3194 23.5163 26.8182C23.4814 27.2814 23.097 27.6496 22.6428 27.6496Z" />
  <path
    d="M25.8216 27.7566C25.6353 27.7566 25.4489 27.7566 25.2625 27.7566C24.785 27.7566 24.389 27.3528 24.4006 26.854C24.4006 26.367 24.7966 25.9751 25.2742 25.9751H25.2858C25.4605 25.9751 25.6469 25.9751 25.8216 25.9751C26.2991 25.9751 26.6952 26.3789 26.6952 26.8658C26.6952 27.3528 26.2991 27.7566 25.8216 27.7566Z" />
  <path
    d="M25.81 35.4881C20.6852 35.4881 15.8632 34.6568 12.206 33.1604C8.30416 31.557 6.14941 29.3124 6.14941 26.8658V19.3124C6.14941 18.8254 6.54542 18.4216 7.02296 18.4216C7.5005 18.4216 7.8965 18.8254 7.8965 19.3124V26.8539C7.8965 28.5048 9.70183 30.2031 12.8582 31.4976C16.3058 32.9109 20.9065 33.6948 25.81 33.6948C30.5854 33.6948 34.6619 33.0535 37.9464 31.7946C38.4007 31.6164 38.9015 31.8539 39.0762 32.3171C39.2509 32.7803 39.018 33.291 38.5637 33.4691C35.0812 34.8112 30.795 35.4881 25.81 35.4881Z" />
  <path
    d="M38.2384 33.6234C37.7609 33.6234 37.3648 33.2196 37.3648 32.7327V24.621L24.9605 20.2267C24.5645 20.0842 24.3199 19.6685 24.3898 19.241C24.4597 18.8134 24.8208 18.4928 25.2401 18.4928L44.6327 18.2315C44.8657 18.2196 45.087 18.3265 45.2617 18.4928C45.4247 18.659 45.5179 18.8847 45.5179 19.1222V26.3313C45.5179 26.8182 45.1219 27.222 44.6444 27.222H39.1119V32.7327C39.1119 33.2315 38.7276 33.6234 38.2384 33.6234ZM30.2367 20.203L38.5296 23.1484C38.879 23.2671 39.1119 23.6115 39.1119 23.9916V25.4405H43.7708V20.0248L30.2367 20.203Z" />
  <path
    d="M32.0537 26.937C31.6227 26.937 31.25 26.6163 31.1918 26.1769C31.1219 25.6899 31.4597 25.2386 31.9372 25.1674C35.3964 24.6567 37.7958 23.2434 37.8191 23.2315C38.2384 22.9821 38.7741 23.1246 39.0187 23.5522C39.2633 23.9797 39.1236 24.526 38.7159 24.7754C38.6111 24.8348 36.0137 26.3788 32.1934 26.9488C32.1352 26.937 32.1003 26.937 32.0537 26.937Z" />
  <path
    d="M39.6477 42.1033C39.4963 42.1033 39.3333 42.0914 39.1819 42.0796L2.42312 37.3765C1.07204 37.1983 0.0470799 36.1413 0.0354326 34.8943C-0.0111564 28.861 5.84741 24.348 6.092 24.158C6.47636 23.8611 7.02379 23.9442 7.31497 24.3361C7.60615 24.728 7.52462 25.2862 7.14026 25.5831C7.08202 25.6188 1.74758 29.7518 1.78252 34.8705C1.78252 35.2387 2.22512 35.5475 2.63277 35.595L39.3915 40.2981C40.102 40.3931 40.8125 40.0843 41.2434 39.5024L44.0271 35.7969C44.4814 35.1912 45.2617 34.918 45.9838 35.1318L52.0288 36.3789C52.879 36.557 53.7176 36.1294 54.0787 35.3218C54.3233 34.7755 54.3 34.1698 54.0205 33.6473C53.7409 33.1366 53.2634 32.7922 52.6927 32.6971L48.6394 32.2815C48.6278 32.2815 48.6161 32.2815 48.6045 32.2815C48.0105 32.1983 47.4863 31.8183 47.2185 31.2601C46.9506 30.7019 46.9622 30.0606 47.265 29.5143L48.0804 28.0297C48.2434 27.7447 48.2434 27.4121 48.092 27.1152C47.9406 26.8183 47.6611 26.6401 47.3466 26.6045C47.3233 26.6045 47.3 26.6045 47.2767 26.5926L44.5279 26.1176C44.0504 26.0344 43.7359 25.5713 43.8058 25.0962C43.8873 24.6093 44.3299 24.2886 44.8075 24.3599L47.5329 24.823C48.4298 24.9181 49.2101 25.4525 49.6411 26.2601C50.072 27.0796 50.0604 28.0653 49.6178 28.8729L48.8025 30.3575C48.7908 30.3694 48.7792 30.3931 48.8025 30.4406C48.8141 30.4762 48.8491 30.4881 48.8607 30.4881L52.879 30.9276C52.8907 30.9276 52.9023 30.9276 52.914 30.9276C54.0437 31.0938 54.9988 31.7708 55.5462 32.7803C56.0937 33.8017 56.1403 34.9893 55.6627 36.0463C54.9639 37.614 53.3216 38.4572 51.6794 38.1128L45.5995 36.8658C45.5645 36.8539 45.5413 36.8539 45.518 36.842C45.483 36.8302 45.4481 36.842 45.4248 36.8777L42.6644 40.595C41.9422 41.5451 40.8241 42.1033 39.6477 42.1033Z" />
  <path
    d="M39.9501 45.4999C39.7521 45.4999 39.5541 45.488 39.3561 45.4524L2.3178 40.5593C1.00166 40.393 0 39.241 0 37.8871V34.9417C0 34.4548 0.396007 34.051 0.873544 34.051C1.35108 34.051 1.74709 34.4548 1.74709 34.9417V37.8871C1.74709 38.3503 2.08486 38.7541 2.5391 38.8134L39.589 43.7066H39.6007C40.4742 43.8372 41.3478 43.469 41.8835 42.7564L44.7022 39.0035C45.2496 38.2671 46.193 37.8989 47.0899 38.0771L52.3428 39.146C52.4126 39.1579 52.6689 39.1816 52.9717 39.1816C53.6706 39.1816 54.2529 38.5878 54.2529 37.8514V34.8823C54.2529 34.3954 54.6489 33.9916 55.1265 33.9916C55.604 33.9916 56 34.3954 56 34.8823V37.8514C56 39.5617 54.6489 40.9512 52.9834 40.9631C52.4942 40.9631 52.1331 40.9156 52.0982 40.9156C52.0749 40.9156 52.0632 40.9156 52.0399 40.9037L46.7521 39.8348C46.5075 39.7873 46.2513 39.8823 46.0882 40.0842L43.2696 43.8372C42.4892 44.8823 41.2429 45.4999 39.9501 45.4999Z" />
</svg>
