<svg xmlns="http://www.w3.org/2000/svg" width="512" height="512" viewbox="0 0 512 512" fill="inherit"><path d="M320 64H192V32h128v32zm192 32v352c0 35.344-28.656 64-64 64H64c-35.344 0-64-28.656-64-64V96c0-35.344 28.656-64 64-64v32c-17.641 0-32 14.375-32 32v64h448V96c0-17.625-14.344-32-32-32V32c35.344 0 64 28.656 64 64zM128 400H32v48c0 17.656 14.359 32 32 32h64v-80zm0-96H32v64h96v-64zm0-112H32v80h96v-80zm112 208h-80v80h80v-80zm0-96h-80v64h80v-64zm0-112h-80v80h80v-80zm112 208h-80v80h80v-80zm0-96h-80v64h80v-64zm0-112h-80v80h80v-80zm128 208h-96v80h64c17.656 0 32-14.344 32-32v-48zm0-96h-96v64h96v-64zm0-112h-96v80h96v-80zM112 96h32c8.844 0 16-7.156 16-16V16c0-8.844-7.156-16-16-16h-32c-8.844 0-16 7.156-16 16v64c0 8.844 7.156 16 16 16zm256 0h32c8.844 0 16-7.156 16-16V16c0-8.844-7.156-16-16-16h-32c-8.844 0-16 7.156-16 16v64c0 8.844 7.156 16 16 16z"/></svg>
