<svg height="32" width="32" viewbox="0 0 32 32" xmlns="http://www.w3.org/2000/svg"><g fill="inherit"><path d="M16 0C7.163 0 0 7.163 0 16c0 8.836 7.163 16 16 16 8.836 0 16-7.164 16-16 0-8.837-7.164-16-16-16zm0 30C8.268 30 2 23.732 2 16S8.268 2 16 2s14 6.268 14 14-6.268 14-14 14z" fill="transparent"/><path d="M25.707 15.286l-6.899-6.999a.993.993 0 00-1.414 0 1.017 1.017 0 000 1.429l5.2 5.275H7c-.552 0-1 .452-1 1.01s.448 1.01 1 1.01h15.593l-5.2 5.275a1.018 1.018 0 000 1.428.994.994 0 001.414 0l6.899-6.999c.187-.188.294-.451.294-.715 0-.263-.108-.526-.293-.714z"/></g></svg>
