<svg width="22" height="20" fill="inherit" stroke="inherit" viewbox="0 0 22 20" xmlns="http://www.w3.org/2000/svg">
  <g fill="none" fill-rule="evenodd">
    <path d="M-1-2h24v24H-1z" />
    <path d="M9.5 15.15l3.98-2.28c.67-.38.67-1.35 0-1.74L9.5 8.85c-.67-.38-1.5.11-1.5.87v4.55c0 .77.83 1.26 1.5.88zM20 4h-7.59l2.94-2.94c.2-.2.2-.51 0-.71-.2-.2-.51-.2-.71 0L11 3.99 7.36.35c-.2-.2-.51-.2-.71 0-.2.2-.2.51 0 .71L9.59 4H2a2 2 0 00-2 2v12c0 1.1.9 2 2 2h18c1.1 0 2-.9 2-2V6a2 2 0 00-2-2zm-1 14H3c-.55 0-1-.45-1-1V7c0-.55.45-1 1-1h16c.55 0 1 .45 1 1v10c0 .55-.45 1-1 1z" />
  </g>
</svg>
